<mxfile host="app.diagrams.net" modified="2024-05-23T11:48:48.415Z" agent="Mozilla/5.0 (Windows NT 10.0; Win64; x64) AppleWebKit/537.36 (KHTML, like Gecko) Chrome/125.0.0.0 Safari/537.36 Edg/125.0.0.0" etag="ZLU1FbxeevWt_PpSMUPy" version="24.4.6" type="github">
  <diagram id="R2lEEEUBdFMjLlhIrx00" name="Page-1">
    <mxGraphModel dx="2876" dy="2245" grid="1" gridSize="10" guides="1" tooltips="1" connect="1" arrows="1" fold="1" page="1" pageScale="1" pageWidth="850" pageHeight="1100" math="0" shadow="0" extFonts="Permanent Marker^https://fonts.googleapis.com/css?family=Permanent+Marker">
      <root>
        <mxCell id="0" />
        <mxCell id="1" parent="0" />
        <mxCell id="5Ab0yGHZ70nHrVdNcmfQ-2" value="" style="rounded=0;whiteSpace=wrap;html=1;fontStyle=1" vertex="1" parent="1">
          <mxGeometry x="-440" y="-30" width="1750" height="1010" as="geometry" />
        </mxCell>
        <mxCell id="5Ab0yGHZ70nHrVdNcmfQ-3" value="Page" style="text;html=1;align=center;verticalAlign=middle;whiteSpace=wrap;rounded=0;fontSize=30;" vertex="1" parent="1">
          <mxGeometry x="-480" y="-60" width="220" height="140" as="geometry" />
        </mxCell>
        <mxCell id="5Ab0yGHZ70nHrVdNcmfQ-5" value="" style="endArrow=none;html=1;rounded=0;entryX=0.498;entryY=-0.006;entryDx=0;entryDy=0;entryPerimeter=0;exitX=0.5;exitY=1.008;exitDx=0;exitDy=0;exitPerimeter=0;" edge="1" parent="1" source="5Ab0yGHZ70nHrVdNcmfQ-2" target="5Ab0yGHZ70nHrVdNcmfQ-2">
          <mxGeometry width="50" height="50" relative="1" as="geometry">
            <mxPoint x="430" y="510" as="sourcePoint" />
            <mxPoint x="480" y="460" as="targetPoint" />
          </mxGeometry>
        </mxCell>
        <mxCell id="5Ab0yGHZ70nHrVdNcmfQ-6" value="" style="endArrow=none;html=1;rounded=0;entryX=1;entryY=0.5;entryDx=0;entryDy=0;" edge="1" parent="1" target="5Ab0yGHZ70nHrVdNcmfQ-2">
          <mxGeometry width="50" height="50" relative="1" as="geometry">
            <mxPoint x="430" y="470" as="sourcePoint" />
            <mxPoint x="520" y="460" as="targetPoint" />
          </mxGeometry>
        </mxCell>
        <mxCell id="5Ab0yGHZ70nHrVdNcmfQ-8" value="插件1 Slot" style="text;html=1;align=center;verticalAlign=middle;whiteSpace=wrap;rounded=0;fontSize=30;" vertex="1" parent="1">
          <mxGeometry x="-110" y="405" width="220" height="140" as="geometry" />
        </mxCell>
        <mxCell id="5Ab0yGHZ70nHrVdNcmfQ-9" value="插件2 Slot" style="text;html=1;align=center;verticalAlign=middle;whiteSpace=wrap;rounded=0;fontSize=30;" vertex="1" parent="1">
          <mxGeometry x="790" y="130" width="220" height="140" as="geometry" />
        </mxCell>
        <mxCell id="5Ab0yGHZ70nHrVdNcmfQ-10" value="插件3 Slot" style="text;html=1;align=center;verticalAlign=middle;whiteSpace=wrap;rounded=0;fontSize=30;" vertex="1" parent="1">
          <mxGeometry x="790" y="650" width="220" height="140" as="geometry" />
        </mxCell>
        <mxCell id="5Ab0yGHZ70nHrVdNcmfQ-11" value="TopBar" style="rounded=0;whiteSpace=wrap;html=1;fontSize=30;" vertex="1" parent="1">
          <mxGeometry x="-440" y="-110" width="1750" height="80" as="geometry" />
        </mxCell>
      </root>
    </mxGraphModel>
  </diagram>
</mxfile>
